<?xml version="1.0" encoding="utf-8" standalone="no"?>
<!DOCTYPE svg PUBLIC "-//W3C//DTD SVG 1.1//EN"
  "http://www.w3.org/Graphics/SVG/1.1/DTD/svg11.dtd">
<svg xmlns:xlink="http://www.w3.org/1999/xlink" width="523.260937pt" height="386.034375pt" viewBox="0 0 523.260937 386.034375" xmlns="http://www.w3.org/2000/svg" version="1.1">
 <metadata>
  <rdf:RDF xmlns:dc="http://purl.org/dc/elements/1.1/" xmlns:cc="http://creativecommons.org/ns#" xmlns:rdf="http://www.w3.org/1999/02/22-rdf-syntax-ns#">
   <cc:Work>
    <dc:type rdf:resource="http://purl.org/dc/dcmitype/StillImage"/>
    <dc:date>2023-07-05T11:39:08.520065</dc:date>
    <dc:format>image/svg+xml</dc:format>
    <dc:creator>
     <cc:Agent>
      <dc:title>Matplotlib v3.5.1, https://matplotlib.org/</dc:title>
     </cc:Agent>
    </dc:creator>
   </cc:Work>
  </rdf:RDF>
 </metadata>
 <defs>
  <style type="text/css">*{stroke-linejoin: round; stroke-linecap: butt}</style>
 </defs>
 <g id="figure_1">
  <g id="patch_1">
   <path d="M 0 386.034375 
L 523.260937 386.034375 
L 523.260937 0 
L 0 0 
L 0 386.034375 
z
" style="fill: none"/>
  </g>
  <g id="axes_1">
   <g id="patch_2">
    <path d="M 69.660938 348.478125 
L 516.060938 348.478125 
L 516.060938 22.318125 
L 69.660938 22.318125 
z
" style="fill: #ffffff"/>
   </g>
   <g id="matplotlib.axis_1">
    <g id="xtick_1">
     <g id="line2d_1">
      <path d="M 76.010866 348.478125 
L 76.010866 22.318125 
" clip-path="url(#p0a6f9c5f6f)" style="fill: none; stroke: #b0b0b0; stroke-width: 0.8; stroke-linecap: square"/>
     </g>
     <g id="line2d_2">
      <defs>
       <path id="maba7b5234b" d="M 0 0 
L 0 3.5 
" style="stroke: #000000; stroke-width: 0.8"/>
      </defs>
      <g>
       <use xlink:href="#maba7b5234b" x="76.010866" y="348.478125" style="stroke: #000000; stroke-width: 0.8"/>
      </g>
     </g>
     <g id="text_1">
      <!-- 0 -->
      <g transform="translate(72.829616 363.076562)scale(0.1 -0.1)">
       <defs>
        <path id="DejaVuSans-30" d="M 2034 4250 
Q 1547 4250 1301 3770 
Q 1056 3291 1056 2328 
Q 1056 1369 1301 889 
Q 1547 409 2034 409 
Q 2525 409 2770 889 
Q 3016 1369 3016 2328 
Q 3016 3291 2770 3770 
Q 2525 4250 2034 4250 
z
M 2034 4750 
Q 2819 4750 3233 4129 
Q 3647 3509 3647 2328 
Q 3647 1150 3233 529 
Q 2819 -91 2034 -91 
Q 1250 -91 836 529 
Q 422 1150 422 2328 
Q 422 3509 836 4129 
Q 1250 4750 2034 4750 
z
" transform="scale(0.015625)"/>
       </defs>
       <use xlink:href="#DejaVuSans-30"/>
      </g>
     </g>
    </g>
    <g id="xtick_2">
     <g id="line2d_3">
      <path d="M 88.710724 348.478125 
L 88.710724 22.318125 
" clip-path="url(#p0a6f9c5f6f)" style="fill: none; stroke: #b0b0b0; stroke-width: 0.8; stroke-linecap: square"/>
     </g>
     <g id="line2d_4">
      <g>
       <use xlink:href="#maba7b5234b" x="88.710724" y="348.478125" style="stroke: #000000; stroke-width: 0.8"/>
      </g>
     </g>
     <g id="text_2">
      <!-- 1 -->
      <g transform="translate(85.529474 363.076562)scale(0.1 -0.1)">
       <defs>
        <path id="DejaVuSans-31" d="M 794 531 
L 1825 531 
L 1825 4091 
L 703 3866 
L 703 4441 
L 1819 4666 
L 2450 4666 
L 2450 531 
L 3481 531 
L 3481 0 
L 794 0 
L 794 531 
z
" transform="scale(0.015625)"/>
       </defs>
       <use xlink:href="#DejaVuSans-31"/>
      </g>
     </g>
    </g>
    <g id="xtick_3">
     <g id="line2d_5">
      <path d="M 101.410582 348.478125 
L 101.410582 22.318125 
" clip-path="url(#p0a6f9c5f6f)" style="fill: none; stroke: #b0b0b0; stroke-width: 0.8; stroke-linecap: square"/>
     </g>
     <g id="line2d_6">
      <g>
       <use xlink:href="#maba7b5234b" x="101.410582" y="348.478125" style="stroke: #000000; stroke-width: 0.8"/>
      </g>
     </g>
     <g id="text_3">
      <!-- 2 -->
      <g transform="translate(98.229332 363.076562)scale(0.1 -0.1)">
       <defs>
        <path id="DejaVuSans-32" d="M 1228 531 
L 3431 531 
L 3431 0 
L 469 0 
L 469 531 
Q 828 903 1448 1529 
Q 2069 2156 2228 2338 
Q 2531 2678 2651 2914 
Q 2772 3150 2772 3378 
Q 2772 3750 2511 3984 
Q 2250 4219 1831 4219 
Q 1534 4219 1204 4116 
Q 875 4013 500 3803 
L 500 4441 
Q 881 4594 1212 4672 
Q 1544 4750 1819 4750 
Q 2544 4750 2975 4387 
Q 3406 4025 3406 3419 
Q 3406 3131 3298 2873 
Q 3191 2616 2906 2266 
Q 2828 2175 2409 1742 
Q 1991 1309 1228 531 
z
" transform="scale(0.015625)"/>
       </defs>
       <use xlink:href="#DejaVuSans-32"/>
      </g>
     </g>
    </g>
    <g id="xtick_4">
     <g id="line2d_7">
      <path d="M 114.11044 348.478125 
L 114.11044 22.318125 
" clip-path="url(#p0a6f9c5f6f)" style="fill: none; stroke: #b0b0b0; stroke-width: 0.8; stroke-linecap: square"/>
     </g>
     <g id="line2d_8">
      <g>
       <use xlink:href="#maba7b5234b" x="114.11044" y="348.478125" style="stroke: #000000; stroke-width: 0.8"/>
      </g>
     </g>
     <g id="text_4">
      <!-- 3 -->
      <g transform="translate(110.92919 363.076562)scale(0.1 -0.1)">
       <defs>
        <path id="DejaVuSans-33" d="M 2597 2516 
Q 3050 2419 3304 2112 
Q 3559 1806 3559 1356 
Q 3559 666 3084 287 
Q 2609 -91 1734 -91 
Q 1441 -91 1130 -33 
Q 819 25 488 141 
L 488 750 
Q 750 597 1062 519 
Q 1375 441 1716 441 
Q 2309 441 2620 675 
Q 2931 909 2931 1356 
Q 2931 1769 2642 2001 
Q 2353 2234 1838 2234 
L 1294 2234 
L 1294 2753 
L 1863 2753 
Q 2328 2753 2575 2939 
Q 2822 3125 2822 3475 
Q 2822 3834 2567 4026 
Q 2313 4219 1838 4219 
Q 1578 4219 1281 4162 
Q 984 4106 628 3988 
L 628 4550 
Q 988 4650 1302 4700 
Q 1616 4750 1894 4750 
Q 2613 4750 3031 4423 
Q 3450 4097 3450 3541 
Q 3450 3153 3228 2886 
Q 3006 2619 2597 2516 
z
" transform="scale(0.015625)"/>
       </defs>
       <use xlink:href="#DejaVuSans-33"/>
      </g>
     </g>
    </g>
    <g id="xtick_5">
     <g id="line2d_9">
      <path d="M 126.810297 348.478125 
L 126.810297 22.318125 
" clip-path="url(#p0a6f9c5f6f)" style="fill: none; stroke: #b0b0b0; stroke-width: 0.8; stroke-linecap: square"/>
     </g>
     <g id="line2d_10">
      <g>
       <use xlink:href="#maba7b5234b" x="126.810297" y="348.478125" style="stroke: #000000; stroke-width: 0.8"/>
      </g>
     </g>
     <g id="text_5">
      <!-- 4 -->
      <g transform="translate(123.629047 363.076562)scale(0.1 -0.1)">
       <defs>
        <path id="DejaVuSans-34" d="M 2419 4116 
L 825 1625 
L 2419 1625 
L 2419 4116 
z
M 2253 4666 
L 3047 4666 
L 3047 1625 
L 3713 1625 
L 3713 1100 
L 3047 1100 
L 3047 0 
L 2419 0 
L 2419 1100 
L 313 1100 
L 313 1709 
L 2253 4666 
z
" transform="scale(0.015625)"/>
       </defs>
       <use xlink:href="#DejaVuSans-34"/>
      </g>
     </g>
    </g>
    <g id="xtick_6">
     <g id="line2d_11">
      <path d="M 139.510155 348.478125 
L 139.510155 22.318125 
" clip-path="url(#p0a6f9c5f6f)" style="fill: none; stroke: #b0b0b0; stroke-width: 0.8; stroke-linecap: square"/>
     </g>
     <g id="line2d_12">
      <g>
       <use xlink:href="#maba7b5234b" x="139.510155" y="348.478125" style="stroke: #000000; stroke-width: 0.8"/>
      </g>
     </g>
     <g id="text_6">
      <!-- 5 -->
      <g transform="translate(136.328905 363.076562)scale(0.1 -0.1)">
       <defs>
        <path id="DejaVuSans-35" d="M 691 4666 
L 3169 4666 
L 3169 4134 
L 1269 4134 
L 1269 2991 
Q 1406 3038 1543 3061 
Q 1681 3084 1819 3084 
Q 2600 3084 3056 2656 
Q 3513 2228 3513 1497 
Q 3513 744 3044 326 
Q 2575 -91 1722 -91 
Q 1428 -91 1123 -41 
Q 819 9 494 109 
L 494 744 
Q 775 591 1075 516 
Q 1375 441 1709 441 
Q 2250 441 2565 725 
Q 2881 1009 2881 1497 
Q 2881 1984 2565 2268 
Q 2250 2553 1709 2553 
Q 1456 2553 1204 2497 
Q 953 2441 691 2322 
L 691 4666 
z
" transform="scale(0.015625)"/>
       </defs>
       <use xlink:href="#DejaVuSans-35"/>
      </g>
     </g>
    </g>
    <g id="xtick_7">
     <g id="line2d_13">
      <path d="M 152.210013 348.478125 
L 152.210013 22.318125 
" clip-path="url(#p0a6f9c5f6f)" style="fill: none; stroke: #b0b0b0; stroke-width: 0.8; stroke-linecap: square"/>
     </g>
     <g id="line2d_14">
      <g>
       <use xlink:href="#maba7b5234b" x="152.210013" y="348.478125" style="stroke: #000000; stroke-width: 0.8"/>
      </g>
     </g>
     <g id="text_7">
      <!-- 6 -->
      <g transform="translate(149.028763 363.076562)scale(0.1 -0.1)">
       <defs>
        <path id="DejaVuSans-36" d="M 2113 2584 
Q 1688 2584 1439 2293 
Q 1191 2003 1191 1497 
Q 1191 994 1439 701 
Q 1688 409 2113 409 
Q 2538 409 2786 701 
Q 3034 994 3034 1497 
Q 3034 2003 2786 2293 
Q 2538 2584 2113 2584 
z
M 3366 4563 
L 3366 3988 
Q 3128 4100 2886 4159 
Q 2644 4219 2406 4219 
Q 1781 4219 1451 3797 
Q 1122 3375 1075 2522 
Q 1259 2794 1537 2939 
Q 1816 3084 2150 3084 
Q 2853 3084 3261 2657 
Q 3669 2231 3669 1497 
Q 3669 778 3244 343 
Q 2819 -91 2113 -91 
Q 1303 -91 875 529 
Q 447 1150 447 2328 
Q 447 3434 972 4092 
Q 1497 4750 2381 4750 
Q 2619 4750 2861 4703 
Q 3103 4656 3366 4563 
z
" transform="scale(0.015625)"/>
       </defs>
       <use xlink:href="#DejaVuSans-36"/>
      </g>
     </g>
    </g>
    <g id="xtick_8">
     <g id="line2d_15">
      <path d="M 164.909871 348.478125 
L 164.909871 22.318125 
" clip-path="url(#p0a6f9c5f6f)" style="fill: none; stroke: #b0b0b0; stroke-width: 0.8; stroke-linecap: square"/>
     </g>
     <g id="line2d_16">
      <g>
       <use xlink:href="#maba7b5234b" x="164.909871" y="348.478125" style="stroke: #000000; stroke-width: 0.8"/>
      </g>
     </g>
     <g id="text_8">
      <!-- 7 -->
      <g transform="translate(161.728621 363.076562)scale(0.1 -0.1)">
       <defs>
        <path id="DejaVuSans-37" d="M 525 4666 
L 3525 4666 
L 3525 4397 
L 1831 0 
L 1172 0 
L 2766 4134 
L 525 4134 
L 525 4666 
z
" transform="scale(0.015625)"/>
       </defs>
       <use xlink:href="#DejaVuSans-37"/>
      </g>
     </g>
    </g>
    <g id="xtick_9">
     <g id="line2d_17">
      <path d="M 177.609728 348.478125 
L 177.609728 22.318125 
" clip-path="url(#p0a6f9c5f6f)" style="fill: none; stroke: #b0b0b0; stroke-width: 0.8; stroke-linecap: square"/>
     </g>
     <g id="line2d_18">
      <g>
       <use xlink:href="#maba7b5234b" x="177.609728" y="348.478125" style="stroke: #000000; stroke-width: 0.8"/>
      </g>
     </g>
     <g id="text_9">
      <!-- 8 -->
      <g transform="translate(174.428478 363.076562)scale(0.1 -0.1)">
       <defs>
        <path id="DejaVuSans-38" d="M 2034 2216 
Q 1584 2216 1326 1975 
Q 1069 1734 1069 1313 
Q 1069 891 1326 650 
Q 1584 409 2034 409 
Q 2484 409 2743 651 
Q 3003 894 3003 1313 
Q 3003 1734 2745 1975 
Q 2488 2216 2034 2216 
z
M 1403 2484 
Q 997 2584 770 2862 
Q 544 3141 544 3541 
Q 544 4100 942 4425 
Q 1341 4750 2034 4750 
Q 2731 4750 3128 4425 
Q 3525 4100 3525 3541 
Q 3525 3141 3298 2862 
Q 3072 2584 2669 2484 
Q 3125 2378 3379 2068 
Q 3634 1759 3634 1313 
Q 3634 634 3220 271 
Q 2806 -91 2034 -91 
Q 1263 -91 848 271 
Q 434 634 434 1313 
Q 434 1759 690 2068 
Q 947 2378 1403 2484 
z
M 1172 3481 
Q 1172 3119 1398 2916 
Q 1625 2713 2034 2713 
Q 2441 2713 2670 2916 
Q 2900 3119 2900 3481 
Q 2900 3844 2670 4047 
Q 2441 4250 2034 4250 
Q 1625 4250 1398 4047 
Q 1172 3844 1172 3481 
z
" transform="scale(0.015625)"/>
       </defs>
       <use xlink:href="#DejaVuSans-38"/>
      </g>
     </g>
    </g>
    <g id="xtick_10">
     <g id="line2d_19">
      <path d="M 190.309586 348.478125 
L 190.309586 22.318125 
" clip-path="url(#p0a6f9c5f6f)" style="fill: none; stroke: #b0b0b0; stroke-width: 0.8; stroke-linecap: square"/>
     </g>
     <g id="line2d_20">
      <g>
       <use xlink:href="#maba7b5234b" x="190.309586" y="348.478125" style="stroke: #000000; stroke-width: 0.8"/>
      </g>
     </g>
     <g id="text_10">
      <!-- 9 -->
      <g transform="translate(187.128336 363.076562)scale(0.1 -0.1)">
       <defs>
        <path id="DejaVuSans-39" d="M 703 97 
L 703 672 
Q 941 559 1184 500 
Q 1428 441 1663 441 
Q 2288 441 2617 861 
Q 2947 1281 2994 2138 
Q 2813 1869 2534 1725 
Q 2256 1581 1919 1581 
Q 1219 1581 811 2004 
Q 403 2428 403 3163 
Q 403 3881 828 4315 
Q 1253 4750 1959 4750 
Q 2769 4750 3195 4129 
Q 3622 3509 3622 2328 
Q 3622 1225 3098 567 
Q 2575 -91 1691 -91 
Q 1453 -91 1209 -44 
Q 966 3 703 97 
z
M 1959 2075 
Q 2384 2075 2632 2365 
Q 2881 2656 2881 3163 
Q 2881 3666 2632 3958 
Q 2384 4250 1959 4250 
Q 1534 4250 1286 3958 
Q 1038 3666 1038 3163 
Q 1038 2656 1286 2365 
Q 1534 2075 1959 2075 
z
" transform="scale(0.015625)"/>
       </defs>
       <use xlink:href="#DejaVuSans-39"/>
      </g>
     </g>
    </g>
    <g id="xtick_11">
     <g id="line2d_21">
      <path d="M 203.009444 348.478125 
L 203.009444 22.318125 
" clip-path="url(#p0a6f9c5f6f)" style="fill: none; stroke: #b0b0b0; stroke-width: 0.8; stroke-linecap: square"/>
     </g>
     <g id="line2d_22">
      <g>
       <use xlink:href="#maba7b5234b" x="203.009444" y="348.478125" style="stroke: #000000; stroke-width: 0.8"/>
      </g>
     </g>
     <g id="text_11">
      <!-- 10 -->
      <g transform="translate(196.646944 363.076562)scale(0.1 -0.1)">
       <use xlink:href="#DejaVuSans-31"/>
       <use xlink:href="#DejaVuSans-30" x="63.623047"/>
      </g>
     </g>
    </g>
    <g id="xtick_12">
     <g id="line2d_23">
      <path d="M 215.709302 348.478125 
L 215.709302 22.318125 
" clip-path="url(#p0a6f9c5f6f)" style="fill: none; stroke: #b0b0b0; stroke-width: 0.8; stroke-linecap: square"/>
     </g>
     <g id="line2d_24">
      <g>
       <use xlink:href="#maba7b5234b" x="215.709302" y="348.478125" style="stroke: #000000; stroke-width: 0.8"/>
      </g>
     </g>
     <g id="text_12">
      <!-- 11 -->
      <g transform="translate(209.346802 363.076562)scale(0.1 -0.1)">
       <use xlink:href="#DejaVuSans-31"/>
       <use xlink:href="#DejaVuSans-31" x="63.623047"/>
      </g>
     </g>
    </g>
    <g id="xtick_13">
     <g id="line2d_25">
      <path d="M 228.409159 348.478125 
L 228.409159 22.318125 
" clip-path="url(#p0a6f9c5f6f)" style="fill: none; stroke: #b0b0b0; stroke-width: 0.8; stroke-linecap: square"/>
     </g>
     <g id="line2d_26">
      <g>
       <use xlink:href="#maba7b5234b" x="228.409159" y="348.478125" style="stroke: #000000; stroke-width: 0.8"/>
      </g>
     </g>
     <g id="text_13">
      <!-- 12 -->
      <g transform="translate(222.046659 363.076562)scale(0.1 -0.1)">
       <use xlink:href="#DejaVuSans-31"/>
       <use xlink:href="#DejaVuSans-32" x="63.623047"/>
      </g>
     </g>
    </g>
    <g id="xtick_14">
     <g id="line2d_27">
      <path d="M 241.109017 348.478125 
L 241.109017 22.318125 
" clip-path="url(#p0a6f9c5f6f)" style="fill: none; stroke: #b0b0b0; stroke-width: 0.8; stroke-linecap: square"/>
     </g>
     <g id="line2d_28">
      <g>
       <use xlink:href="#maba7b5234b" x="241.109017" y="348.478125" style="stroke: #000000; stroke-width: 0.8"/>
      </g>
     </g>
     <g id="text_14">
      <!-- 13 -->
      <g transform="translate(234.746517 363.076562)scale(0.1 -0.1)">
       <use xlink:href="#DejaVuSans-31"/>
       <use xlink:href="#DejaVuSans-33" x="63.623047"/>
      </g>
     </g>
    </g>
    <g id="xtick_15">
     <g id="line2d_29">
      <path d="M 253.808875 348.478125 
L 253.808875 22.318125 
" clip-path="url(#p0a6f9c5f6f)" style="fill: none; stroke: #b0b0b0; stroke-width: 0.8; stroke-linecap: square"/>
     </g>
     <g id="line2d_30">
      <g>
       <use xlink:href="#maba7b5234b" x="253.808875" y="348.478125" style="stroke: #000000; stroke-width: 0.8"/>
      </g>
     </g>
     <g id="text_15">
      <!-- 14 -->
      <g transform="translate(247.446375 363.076562)scale(0.1 -0.1)">
       <use xlink:href="#DejaVuSans-31"/>
       <use xlink:href="#DejaVuSans-34" x="63.623047"/>
      </g>
     </g>
    </g>
    <g id="xtick_16">
     <g id="line2d_31">
      <path d="M 266.508733 348.478125 
L 266.508733 22.318125 
" clip-path="url(#p0a6f9c5f6f)" style="fill: none; stroke: #b0b0b0; stroke-width: 0.8; stroke-linecap: square"/>
     </g>
     <g id="line2d_32">
      <g>
       <use xlink:href="#maba7b5234b" x="266.508733" y="348.478125" style="stroke: #000000; stroke-width: 0.8"/>
      </g>
     </g>
     <g id="text_16">
      <!-- 15 -->
      <g transform="translate(260.146233 363.076562)scale(0.1 -0.1)">
       <use xlink:href="#DejaVuSans-31"/>
       <use xlink:href="#DejaVuSans-35" x="63.623047"/>
      </g>
     </g>
    </g>
    <g id="xtick_17">
     <g id="line2d_33">
      <path d="M 279.20859 348.478125 
L 279.20859 22.318125 
" clip-path="url(#p0a6f9c5f6f)" style="fill: none; stroke: #b0b0b0; stroke-width: 0.8; stroke-linecap: square"/>
     </g>
     <g id="line2d_34">
      <g>
       <use xlink:href="#maba7b5234b" x="279.20859" y="348.478125" style="stroke: #000000; stroke-width: 0.8"/>
      </g>
     </g>
     <g id="text_17">
      <!-- 16 -->
      <g transform="translate(272.84609 363.076562)scale(0.1 -0.1)">
       <use xlink:href="#DejaVuSans-31"/>
       <use xlink:href="#DejaVuSans-36" x="63.623047"/>
      </g>
     </g>
    </g>
    <g id="xtick_18">
     <g id="line2d_35">
      <path d="M 291.908448 348.478125 
L 291.908448 22.318125 
" clip-path="url(#p0a6f9c5f6f)" style="fill: none; stroke: #b0b0b0; stroke-width: 0.8; stroke-linecap: square"/>
     </g>
     <g id="line2d_36">
      <g>
       <use xlink:href="#maba7b5234b" x="291.908448" y="348.478125" style="stroke: #000000; stroke-width: 0.8"/>
      </g>
     </g>
     <g id="text_18">
      <!-- 17 -->
      <g transform="translate(285.545948 363.076562)scale(0.1 -0.1)">
       <use xlink:href="#DejaVuSans-31"/>
       <use xlink:href="#DejaVuSans-37" x="63.623047"/>
      </g>
     </g>
    </g>
    <g id="xtick_19">
     <g id="line2d_37">
      <path d="M 304.608306 348.478125 
L 304.608306 22.318125 
" clip-path="url(#p0a6f9c5f6f)" style="fill: none; stroke: #b0b0b0; stroke-width: 0.8; stroke-linecap: square"/>
     </g>
     <g id="line2d_38">
      <g>
       <use xlink:href="#maba7b5234b" x="304.608306" y="348.478125" style="stroke: #000000; stroke-width: 0.8"/>
      </g>
     </g>
     <g id="text_19">
      <!-- 18 -->
      <g transform="translate(298.245806 363.076562)scale(0.1 -0.1)">
       <use xlink:href="#DejaVuSans-31"/>
       <use xlink:href="#DejaVuSans-38" x="63.623047"/>
      </g>
     </g>
    </g>
    <g id="xtick_20">
     <g id="line2d_39">
      <path d="M 317.308164 348.478125 
L 317.308164 22.318125 
" clip-path="url(#p0a6f9c5f6f)" style="fill: none; stroke: #b0b0b0; stroke-width: 0.8; stroke-linecap: square"/>
     </g>
     <g id="line2d_40">
      <g>
       <use xlink:href="#maba7b5234b" x="317.308164" y="348.478125" style="stroke: #000000; stroke-width: 0.8"/>
      </g>
     </g>
     <g id="text_20">
      <!-- 19 -->
      <g transform="translate(310.945664 363.076562)scale(0.1 -0.1)">
       <use xlink:href="#DejaVuSans-31"/>
       <use xlink:href="#DejaVuSans-39" x="63.623047"/>
      </g>
     </g>
    </g>
    <g id="xtick_21">
     <g id="line2d_41">
      <path d="M 330.008021 348.478125 
L 330.008021 22.318125 
" clip-path="url(#p0a6f9c5f6f)" style="fill: none; stroke: #b0b0b0; stroke-width: 0.8; stroke-linecap: square"/>
     </g>
     <g id="line2d_42">
      <g>
       <use xlink:href="#maba7b5234b" x="330.008021" y="348.478125" style="stroke: #000000; stroke-width: 0.8"/>
      </g>
     </g>
     <g id="text_21">
      <!-- 20 -->
      <g transform="translate(323.645521 363.076562)scale(0.1 -0.1)">
       <use xlink:href="#DejaVuSans-32"/>
       <use xlink:href="#DejaVuSans-30" x="63.623047"/>
      </g>
     </g>
    </g>
    <g id="xtick_22">
     <g id="line2d_43">
      <path d="M 342.707879 348.478125 
L 342.707879 22.318125 
" clip-path="url(#p0a6f9c5f6f)" style="fill: none; stroke: #b0b0b0; stroke-width: 0.8; stroke-linecap: square"/>
     </g>
     <g id="line2d_44">
      <g>
       <use xlink:href="#maba7b5234b" x="342.707879" y="348.478125" style="stroke: #000000; stroke-width: 0.8"/>
      </g>
     </g>
     <g id="text_22">
      <!-- 21 -->
      <g transform="translate(336.345379 363.076562)scale(0.1 -0.1)">
       <use xlink:href="#DejaVuSans-32"/>
       <use xlink:href="#DejaVuSans-31" x="63.623047"/>
      </g>
     </g>
    </g>
    <g id="xtick_23">
     <g id="line2d_45">
      <path d="M 355.407737 348.478125 
L 355.407737 22.318125 
" clip-path="url(#p0a6f9c5f6f)" style="fill: none; stroke: #b0b0b0; stroke-width: 0.8; stroke-linecap: square"/>
     </g>
     <g id="line2d_46">
      <g>
       <use xlink:href="#maba7b5234b" x="355.407737" y="348.478125" style="stroke: #000000; stroke-width: 0.8"/>
      </g>
     </g>
     <g id="text_23">
      <!-- 22 -->
      <g transform="translate(349.045237 363.076562)scale(0.1 -0.1)">
       <use xlink:href="#DejaVuSans-32"/>
       <use xlink:href="#DejaVuSans-32" x="63.623047"/>
      </g>
     </g>
    </g>
    <g id="xtick_24">
     <g id="line2d_47">
      <path d="M 368.107595 348.478125 
L 368.107595 22.318125 
" clip-path="url(#p0a6f9c5f6f)" style="fill: none; stroke: #b0b0b0; stroke-width: 0.8; stroke-linecap: square"/>
     </g>
     <g id="line2d_48">
      <g>
       <use xlink:href="#maba7b5234b" x="368.107595" y="348.478125" style="stroke: #000000; stroke-width: 0.8"/>
      </g>
     </g>
     <g id="text_24">
      <!-- 23 -->
      <g transform="translate(361.745095 363.076562)scale(0.1 -0.1)">
       <use xlink:href="#DejaVuSans-32"/>
       <use xlink:href="#DejaVuSans-33" x="63.623047"/>
      </g>
     </g>
    </g>
    <g id="xtick_25">
     <g id="line2d_49">
      <path d="M 380.807452 348.478125 
L 380.807452 22.318125 
" clip-path="url(#p0a6f9c5f6f)" style="fill: none; stroke: #b0b0b0; stroke-width: 0.8; stroke-linecap: square"/>
     </g>
     <g id="line2d_50">
      <g>
       <use xlink:href="#maba7b5234b" x="380.807452" y="348.478125" style="stroke: #000000; stroke-width: 0.8"/>
      </g>
     </g>
     <g id="text_25">
      <!-- 24 -->
      <g transform="translate(374.444952 363.076562)scale(0.1 -0.1)">
       <use xlink:href="#DejaVuSans-32"/>
       <use xlink:href="#DejaVuSans-34" x="63.623047"/>
      </g>
     </g>
    </g>
    <g id="xtick_26">
     <g id="line2d_51">
      <path d="M 393.50731 348.478125 
L 393.50731 22.318125 
" clip-path="url(#p0a6f9c5f6f)" style="fill: none; stroke: #b0b0b0; stroke-width: 0.8; stroke-linecap: square"/>
     </g>
     <g id="line2d_52">
      <g>
       <use xlink:href="#maba7b5234b" x="393.50731" y="348.478125" style="stroke: #000000; stroke-width: 0.8"/>
      </g>
     </g>
     <g id="text_26">
      <!-- 25 -->
      <g transform="translate(387.14481 363.076562)scale(0.1 -0.1)">
       <use xlink:href="#DejaVuSans-32"/>
       <use xlink:href="#DejaVuSans-35" x="63.623047"/>
      </g>
     </g>
    </g>
    <g id="xtick_27">
     <g id="line2d_53">
      <path d="M 406.207168 348.478125 
L 406.207168 22.318125 
" clip-path="url(#p0a6f9c5f6f)" style="fill: none; stroke: #b0b0b0; stroke-width: 0.8; stroke-linecap: square"/>
     </g>
     <g id="line2d_54">
      <g>
       <use xlink:href="#maba7b5234b" x="406.207168" y="348.478125" style="stroke: #000000; stroke-width: 0.8"/>
      </g>
     </g>
     <g id="text_27">
      <!-- 26 -->
      <g transform="translate(399.844668 363.076562)scale(0.1 -0.1)">
       <use xlink:href="#DejaVuSans-32"/>
       <use xlink:href="#DejaVuSans-36" x="63.623047"/>
      </g>
     </g>
    </g>
    <g id="xtick_28">
     <g id="line2d_55">
      <path d="M 418.907026 348.478125 
L 418.907026 22.318125 
" clip-path="url(#p0a6f9c5f6f)" style="fill: none; stroke: #b0b0b0; stroke-width: 0.8; stroke-linecap: square"/>
     </g>
     <g id="line2d_56">
      <g>
       <use xlink:href="#maba7b5234b" x="418.907026" y="348.478125" style="stroke: #000000; stroke-width: 0.8"/>
      </g>
     </g>
     <g id="text_28">
      <!-- 27 -->
      <g transform="translate(412.544526 363.076562)scale(0.1 -0.1)">
       <use xlink:href="#DejaVuSans-32"/>
       <use xlink:href="#DejaVuSans-37" x="63.623047"/>
      </g>
     </g>
    </g>
    <g id="xtick_29">
     <g id="line2d_57">
      <path d="M 431.606883 348.478125 
L 431.606883 22.318125 
" clip-path="url(#p0a6f9c5f6f)" style="fill: none; stroke: #b0b0b0; stroke-width: 0.8; stroke-linecap: square"/>
     </g>
     <g id="line2d_58">
      <g>
       <use xlink:href="#maba7b5234b" x="431.606883" y="348.478125" style="stroke: #000000; stroke-width: 0.8"/>
      </g>
     </g>
     <g id="text_29">
      <!-- 28 -->
      <g transform="translate(425.244383 363.076562)scale(0.1 -0.1)">
       <use xlink:href="#DejaVuSans-32"/>
       <use xlink:href="#DejaVuSans-38" x="63.623047"/>
      </g>
     </g>
    </g>
    <g id="xtick_30">
     <g id="line2d_59">
      <path d="M 444.306741 348.478125 
L 444.306741 22.318125 
" clip-path="url(#p0a6f9c5f6f)" style="fill: none; stroke: #b0b0b0; stroke-width: 0.8; stroke-linecap: square"/>
     </g>
     <g id="line2d_60">
      <g>
       <use xlink:href="#maba7b5234b" x="444.306741" y="348.478125" style="stroke: #000000; stroke-width: 0.8"/>
      </g>
     </g>
     <g id="text_30">
      <!-- 29 -->
      <g transform="translate(437.944241 363.076562)scale(0.1 -0.1)">
       <use xlink:href="#DejaVuSans-32"/>
       <use xlink:href="#DejaVuSans-39" x="63.623047"/>
      </g>
     </g>
    </g>
    <g id="xtick_31">
     <g id="line2d_61">
      <path d="M 457.006599 348.478125 
L 457.006599 22.318125 
" clip-path="url(#p0a6f9c5f6f)" style="fill: none; stroke: #b0b0b0; stroke-width: 0.8; stroke-linecap: square"/>
     </g>
     <g id="line2d_62">
      <g>
       <use xlink:href="#maba7b5234b" x="457.006599" y="348.478125" style="stroke: #000000; stroke-width: 0.8"/>
      </g>
     </g>
     <g id="text_31">
      <!-- 30 -->
      <g transform="translate(450.644099 363.076562)scale(0.1 -0.1)">
       <use xlink:href="#DejaVuSans-33"/>
       <use xlink:href="#DejaVuSans-30" x="63.623047"/>
      </g>
     </g>
    </g>
    <g id="xtick_32">
     <g id="line2d_63">
      <path d="M 469.706457 348.478125 
L 469.706457 22.318125 
" clip-path="url(#p0a6f9c5f6f)" style="fill: none; stroke: #b0b0b0; stroke-width: 0.8; stroke-linecap: square"/>
     </g>
     <g id="line2d_64">
      <g>
       <use xlink:href="#maba7b5234b" x="469.706457" y="348.478125" style="stroke: #000000; stroke-width: 0.8"/>
      </g>
     </g>
     <g id="text_32">
      <!-- 31 -->
      <g transform="translate(463.343957 363.076562)scale(0.1 -0.1)">
       <use xlink:href="#DejaVuSans-33"/>
       <use xlink:href="#DejaVuSans-31" x="63.623047"/>
      </g>
     </g>
    </g>
    <g id="xtick_33">
     <g id="line2d_65">
      <path d="M 482.406314 348.478125 
L 482.406314 22.318125 
" clip-path="url(#p0a6f9c5f6f)" style="fill: none; stroke: #b0b0b0; stroke-width: 0.8; stroke-linecap: square"/>
     </g>
     <g id="line2d_66">
      <g>
       <use xlink:href="#maba7b5234b" x="482.406314" y="348.478125" style="stroke: #000000; stroke-width: 0.8"/>
      </g>
     </g>
     <g id="text_33">
      <!-- 32 -->
      <g transform="translate(476.043814 363.076562)scale(0.1 -0.1)">
       <use xlink:href="#DejaVuSans-33"/>
       <use xlink:href="#DejaVuSans-32" x="63.623047"/>
      </g>
     </g>
    </g>
    <g id="xtick_34">
     <g id="line2d_67">
      <path d="M 495.106172 348.478125 
L 495.106172 22.318125 
" clip-path="url(#p0a6f9c5f6f)" style="fill: none; stroke: #b0b0b0; stroke-width: 0.8; stroke-linecap: square"/>
     </g>
     <g id="line2d_68">
      <g>
       <use xlink:href="#maba7b5234b" x="495.106172" y="348.478125" style="stroke: #000000; stroke-width: 0.8"/>
      </g>
     </g>
     <g id="text_34">
      <!-- 33 -->
      <g transform="translate(488.743672 363.076562)scale(0.1 -0.1)">
       <use xlink:href="#DejaVuSans-33"/>
       <use xlink:href="#DejaVuSans-33" x="63.623047"/>
      </g>
     </g>
    </g>
    <g id="xtick_35">
     <g id="line2d_69">
      <path d="M 507.80603 348.478125 
L 507.80603 22.318125 
" clip-path="url(#p0a6f9c5f6f)" style="fill: none; stroke: #b0b0b0; stroke-width: 0.8; stroke-linecap: square"/>
     </g>
     <g id="line2d_70">
      <g>
       <use xlink:href="#maba7b5234b" x="507.80603" y="348.478125" style="stroke: #000000; stroke-width: 0.8"/>
      </g>
     </g>
     <g id="text_35">
      <!-- 34 -->
      <g transform="translate(501.44353 363.076562)scale(0.1 -0.1)">
       <use xlink:href="#DejaVuSans-33"/>
       <use xlink:href="#DejaVuSans-34" x="63.623047"/>
      </g>
     </g>
    </g>
    <g id="text_36">
     <!-- Number of Minima or Maxima -->
     <g transform="translate(218.628125 376.754687)scale(0.1 -0.1)">
      <defs>
       <path id="DejaVuSans-4e" d="M 628 4666 
L 1478 4666 
L 3547 763 
L 3547 4666 
L 4159 4666 
L 4159 0 
L 3309 0 
L 1241 3903 
L 1241 0 
L 628 0 
L 628 4666 
z
" transform="scale(0.015625)"/>
       <path id="DejaVuSans-75" d="M 544 1381 
L 544 3500 
L 1119 3500 
L 1119 1403 
Q 1119 906 1312 657 
Q 1506 409 1894 409 
Q 2359 409 2629 706 
Q 2900 1003 2900 1516 
L 2900 3500 
L 3475 3500 
L 3475 0 
L 2900 0 
L 2900 538 
Q 2691 219 2414 64 
Q 2138 -91 1772 -91 
Q 1169 -91 856 284 
Q 544 659 544 1381 
z
M 1991 3584 
L 1991 3584 
z
" transform="scale(0.015625)"/>
       <path id="DejaVuSans-6d" d="M 3328 2828 
Q 3544 3216 3844 3400 
Q 4144 3584 4550 3584 
Q 5097 3584 5394 3201 
Q 5691 2819 5691 2113 
L 5691 0 
L 5113 0 
L 5113 2094 
Q 5113 2597 4934 2840 
Q 4756 3084 4391 3084 
Q 3944 3084 3684 2787 
Q 3425 2491 3425 1978 
L 3425 0 
L 2847 0 
L 2847 2094 
Q 2847 2600 2669 2842 
Q 2491 3084 2119 3084 
Q 1678 3084 1418 2786 
Q 1159 2488 1159 1978 
L 1159 0 
L 581 0 
L 581 3500 
L 1159 3500 
L 1159 2956 
Q 1356 3278 1631 3431 
Q 1906 3584 2284 3584 
Q 2666 3584 2933 3390 
Q 3200 3197 3328 2828 
z
" transform="scale(0.015625)"/>
       <path id="DejaVuSans-62" d="M 3116 1747 
Q 3116 2381 2855 2742 
Q 2594 3103 2138 3103 
Q 1681 3103 1420 2742 
Q 1159 2381 1159 1747 
Q 1159 1113 1420 752 
Q 1681 391 2138 391 
Q 2594 391 2855 752 
Q 3116 1113 3116 1747 
z
M 1159 2969 
Q 1341 3281 1617 3432 
Q 1894 3584 2278 3584 
Q 2916 3584 3314 3078 
Q 3713 2572 3713 1747 
Q 3713 922 3314 415 
Q 2916 -91 2278 -91 
Q 1894 -91 1617 61 
Q 1341 213 1159 525 
L 1159 0 
L 581 0 
L 581 4863 
L 1159 4863 
L 1159 2969 
z
" transform="scale(0.015625)"/>
       <path id="DejaVuSans-65" d="M 3597 1894 
L 3597 1613 
L 953 1613 
Q 991 1019 1311 708 
Q 1631 397 2203 397 
Q 2534 397 2845 478 
Q 3156 559 3463 722 
L 3463 178 
Q 3153 47 2828 -22 
Q 2503 -91 2169 -91 
Q 1331 -91 842 396 
Q 353 884 353 1716 
Q 353 2575 817 3079 
Q 1281 3584 2069 3584 
Q 2775 3584 3186 3129 
Q 3597 2675 3597 1894 
z
M 3022 2063 
Q 3016 2534 2758 2815 
Q 2500 3097 2075 3097 
Q 1594 3097 1305 2825 
Q 1016 2553 972 2059 
L 3022 2063 
z
" transform="scale(0.015625)"/>
       <path id="DejaVuSans-72" d="M 2631 2963 
Q 2534 3019 2420 3045 
Q 2306 3072 2169 3072 
Q 1681 3072 1420 2755 
Q 1159 2438 1159 1844 
L 1159 0 
L 581 0 
L 581 3500 
L 1159 3500 
L 1159 2956 
Q 1341 3275 1631 3429 
Q 1922 3584 2338 3584 
Q 2397 3584 2469 3576 
Q 2541 3569 2628 3553 
L 2631 2963 
z
" transform="scale(0.015625)"/>
       <path id="DejaVuSans-20" transform="scale(0.015625)"/>
       <path id="DejaVuSans-6f" d="M 1959 3097 
Q 1497 3097 1228 2736 
Q 959 2375 959 1747 
Q 959 1119 1226 758 
Q 1494 397 1959 397 
Q 2419 397 2687 759 
Q 2956 1122 2956 1747 
Q 2956 2369 2687 2733 
Q 2419 3097 1959 3097 
z
M 1959 3584 
Q 2709 3584 3137 3096 
Q 3566 2609 3566 1747 
Q 3566 888 3137 398 
Q 2709 -91 1959 -91 
Q 1206 -91 779 398 
Q 353 888 353 1747 
Q 353 2609 779 3096 
Q 1206 3584 1959 3584 
z
" transform="scale(0.015625)"/>
       <path id="DejaVuSans-66" d="M 2375 4863 
L 2375 4384 
L 1825 4384 
Q 1516 4384 1395 4259 
Q 1275 4134 1275 3809 
L 1275 3500 
L 2222 3500 
L 2222 3053 
L 1275 3053 
L 1275 0 
L 697 0 
L 697 3053 
L 147 3053 
L 147 3500 
L 697 3500 
L 697 3744 
Q 697 4328 969 4595 
Q 1241 4863 1831 4863 
L 2375 4863 
z
" transform="scale(0.015625)"/>
       <path id="DejaVuSans-4d" d="M 628 4666 
L 1569 4666 
L 2759 1491 
L 3956 4666 
L 4897 4666 
L 4897 0 
L 4281 0 
L 4281 4097 
L 3078 897 
L 2444 897 
L 1241 4097 
L 1241 0 
L 628 0 
L 628 4666 
z
" transform="scale(0.015625)"/>
       <path id="DejaVuSans-69" d="M 603 3500 
L 1178 3500 
L 1178 0 
L 603 0 
L 603 3500 
z
M 603 4863 
L 1178 4863 
L 1178 4134 
L 603 4134 
L 603 4863 
z
" transform="scale(0.015625)"/>
       <path id="DejaVuSans-6e" d="M 3513 2113 
L 3513 0 
L 2938 0 
L 2938 2094 
Q 2938 2591 2744 2837 
Q 2550 3084 2163 3084 
Q 1697 3084 1428 2787 
Q 1159 2491 1159 1978 
L 1159 0 
L 581 0 
L 581 3500 
L 1159 3500 
L 1159 2956 
Q 1366 3272 1645 3428 
Q 1925 3584 2291 3584 
Q 2894 3584 3203 3211 
Q 3513 2838 3513 2113 
z
" transform="scale(0.015625)"/>
       <path id="DejaVuSans-61" d="M 2194 1759 
Q 1497 1759 1228 1600 
Q 959 1441 959 1056 
Q 959 750 1161 570 
Q 1363 391 1709 391 
Q 2188 391 2477 730 
Q 2766 1069 2766 1631 
L 2766 1759 
L 2194 1759 
z
M 3341 1997 
L 3341 0 
L 2766 0 
L 2766 531 
Q 2569 213 2275 61 
Q 1981 -91 1556 -91 
Q 1019 -91 701 211 
Q 384 513 384 1019 
Q 384 1609 779 1909 
Q 1175 2209 1959 2209 
L 2766 2209 
L 2766 2266 
Q 2766 2663 2505 2880 
Q 2244 3097 1772 3097 
Q 1472 3097 1187 3025 
Q 903 2953 641 2809 
L 641 3341 
Q 956 3463 1253 3523 
Q 1550 3584 1831 3584 
Q 2591 3584 2966 3190 
Q 3341 2797 3341 1997 
z
" transform="scale(0.015625)"/>
       <path id="DejaVuSans-78" d="M 3513 3500 
L 2247 1797 
L 3578 0 
L 2900 0 
L 1881 1375 
L 863 0 
L 184 0 
L 1544 1831 
L 300 3500 
L 978 3500 
L 1906 2253 
L 2834 3500 
L 3513 3500 
z
" transform="scale(0.015625)"/>
      </defs>
      <use xlink:href="#DejaVuSans-4e"/>
      <use xlink:href="#DejaVuSans-75" x="74.804688"/>
      <use xlink:href="#DejaVuSans-6d" x="138.183594"/>
      <use xlink:href="#DejaVuSans-62" x="235.595703"/>
      <use xlink:href="#DejaVuSans-65" x="299.072266"/>
      <use xlink:href="#DejaVuSans-72" x="360.595703"/>
      <use xlink:href="#DejaVuSans-20" x="401.708984"/>
      <use xlink:href="#DejaVuSans-6f" x="433.496094"/>
      <use xlink:href="#DejaVuSans-66" x="494.677734"/>
      <use xlink:href="#DejaVuSans-20" x="529.882812"/>
      <use xlink:href="#DejaVuSans-4d" x="561.669922"/>
      <use xlink:href="#DejaVuSans-69" x="647.949219"/>
      <use xlink:href="#DejaVuSans-6e" x="675.732422"/>
      <use xlink:href="#DejaVuSans-69" x="739.111328"/>
      <use xlink:href="#DejaVuSans-6d" x="766.894531"/>
      <use xlink:href="#DejaVuSans-61" x="864.306641"/>
      <use xlink:href="#DejaVuSans-20" x="925.585938"/>
      <use xlink:href="#DejaVuSans-6f" x="957.373047"/>
      <use xlink:href="#DejaVuSans-72" x="1018.554688"/>
      <use xlink:href="#DejaVuSans-20" x="1059.667969"/>
      <use xlink:href="#DejaVuSans-4d" x="1091.455078"/>
      <use xlink:href="#DejaVuSans-61" x="1177.734375"/>
      <use xlink:href="#DejaVuSans-78" x="1239.013672"/>
      <use xlink:href="#DejaVuSans-69" x="1298.193359"/>
      <use xlink:href="#DejaVuSans-6d" x="1325.976562"/>
      <use xlink:href="#DejaVuSans-61" x="1423.388672"/>
     </g>
    </g>
   </g>
   <g id="matplotlib.axis_2">
    <g id="ytick_1">
     <g id="line2d_71">
      <path d="M 69.660938 345.383249 
L 516.060938 345.383249 
" clip-path="url(#p0a6f9c5f6f)" style="fill: none; stroke: #b0b0b0; stroke-width: 0.8; stroke-linecap: square"/>
     </g>
     <g id="line2d_72">
      <defs>
       <path id="md3ce5a0a84" d="M 0 0 
L -3.5 0 
" style="stroke: #000000; stroke-width: 0.8"/>
      </defs>
      <g>
       <use xlink:href="#md3ce5a0a84" x="69.660938" y="345.383249" style="stroke: #000000; stroke-width: 0.8"/>
      </g>
     </g>
     <g id="text_37">
      <!-- 2020-01 -->
      <g transform="translate(20.878125 349.182468)scale(0.1 -0.1)">
       <defs>
        <path id="DejaVuSans-2d" d="M 313 2009 
L 1997 2009 
L 1997 1497 
L 313 1497 
L 313 2009 
z
" transform="scale(0.015625)"/>
       </defs>
       <use xlink:href="#DejaVuSans-32"/>
       <use xlink:href="#DejaVuSans-30" x="63.623047"/>
       <use xlink:href="#DejaVuSans-32" x="127.246094"/>
       <use xlink:href="#DejaVuSans-30" x="190.869141"/>
       <use xlink:href="#DejaVuSans-2d" x="254.492188"/>
       <use xlink:href="#DejaVuSans-30" x="290.576172"/>
       <use xlink:href="#DejaVuSans-31" x="354.199219"/>
      </g>
     </g>
    </g>
    <g id="ytick_2">
     <g id="line2d_73">
      <path d="M 69.660938 315.183249 
L 516.060938 315.183249 
" clip-path="url(#p0a6f9c5f6f)" style="fill: none; stroke: #b0b0b0; stroke-width: 0.8; stroke-linecap: square"/>
     </g>
     <g id="line2d_74">
      <g>
       <use xlink:href="#md3ce5a0a84" x="69.660938" y="315.183249" style="stroke: #000000; stroke-width: 0.8"/>
      </g>
     </g>
     <g id="text_38">
      <!-- 2020-05 -->
      <g transform="translate(20.878125 318.982468)scale(0.1 -0.1)">
       <use xlink:href="#DejaVuSans-32"/>
       <use xlink:href="#DejaVuSans-30" x="63.623047"/>
       <use xlink:href="#DejaVuSans-32" x="127.246094"/>
       <use xlink:href="#DejaVuSans-30" x="190.869141"/>
       <use xlink:href="#DejaVuSans-2d" x="254.492188"/>
       <use xlink:href="#DejaVuSans-30" x="290.576172"/>
       <use xlink:href="#DejaVuSans-35" x="354.199219"/>
      </g>
     </g>
    </g>
    <g id="ytick_3">
     <g id="line2d_75">
      <path d="M 69.660938 284.484075 
L 516.060938 284.484075 
" clip-path="url(#p0a6f9c5f6f)" style="fill: none; stroke: #b0b0b0; stroke-width: 0.8; stroke-linecap: square"/>
     </g>
     <g id="line2d_76">
      <g>
       <use xlink:href="#md3ce5a0a84" x="69.660938" y="284.484075" style="stroke: #000000; stroke-width: 0.8"/>
      </g>
     </g>
     <g id="text_39">
      <!-- 2020-09 -->
      <g transform="translate(20.878125 288.283294)scale(0.1 -0.1)">
       <use xlink:href="#DejaVuSans-32"/>
       <use xlink:href="#DejaVuSans-30" x="63.623047"/>
       <use xlink:href="#DejaVuSans-32" x="127.246094"/>
       <use xlink:href="#DejaVuSans-30" x="190.869141"/>
       <use xlink:href="#DejaVuSans-2d" x="254.492188"/>
       <use xlink:href="#DejaVuSans-30" x="290.576172"/>
       <use xlink:href="#DejaVuSans-39" x="354.199219"/>
      </g>
     </g>
    </g>
    <g id="ytick_4">
     <g id="line2d_77">
      <path d="M 69.660938 254.034489 
L 516.060938 254.034489 
" clip-path="url(#p0a6f9c5f6f)" style="fill: none; stroke: #b0b0b0; stroke-width: 0.8; stroke-linecap: square"/>
     </g>
     <g id="line2d_78">
      <g>
       <use xlink:href="#md3ce5a0a84" x="69.660938" y="254.034489" style="stroke: #000000; stroke-width: 0.8"/>
      </g>
     </g>
     <g id="text_40">
      <!-- 2021-01 -->
      <g transform="translate(20.878125 257.833707)scale(0.1 -0.1)">
       <use xlink:href="#DejaVuSans-32"/>
       <use xlink:href="#DejaVuSans-30" x="63.623047"/>
       <use xlink:href="#DejaVuSans-32" x="127.246094"/>
       <use xlink:href="#DejaVuSans-31" x="190.869141"/>
       <use xlink:href="#DejaVuSans-2d" x="254.492188"/>
       <use xlink:href="#DejaVuSans-30" x="290.576172"/>
       <use xlink:href="#DejaVuSans-31" x="354.199219"/>
      </g>
     </g>
    </g>
    <g id="ytick_5">
     <g id="line2d_79">
      <path d="M 69.660938 224.084075 
L 516.060938 224.084075 
" clip-path="url(#p0a6f9c5f6f)" style="fill: none; stroke: #b0b0b0; stroke-width: 0.8; stroke-linecap: square"/>
     </g>
     <g id="line2d_80">
      <g>
       <use xlink:href="#md3ce5a0a84" x="69.660938" y="224.084075" style="stroke: #000000; stroke-width: 0.8"/>
      </g>
     </g>
     <g id="text_41">
      <!-- 2021-05 -->
      <g transform="translate(20.878125 227.883294)scale(0.1 -0.1)">
       <use xlink:href="#DejaVuSans-32"/>
       <use xlink:href="#DejaVuSans-30" x="63.623047"/>
       <use xlink:href="#DejaVuSans-32" x="127.246094"/>
       <use xlink:href="#DejaVuSans-31" x="190.869141"/>
       <use xlink:href="#DejaVuSans-2d" x="254.492188"/>
       <use xlink:href="#DejaVuSans-30" x="290.576172"/>
       <use xlink:href="#DejaVuSans-35" x="354.199219"/>
      </g>
     </g>
    </g>
    <g id="ytick_6">
     <g id="line2d_81">
      <path d="M 69.660938 193.384902 
L 516.060938 193.384902 
" clip-path="url(#p0a6f9c5f6f)" style="fill: none; stroke: #b0b0b0; stroke-width: 0.8; stroke-linecap: square"/>
     </g>
     <g id="line2d_82">
      <g>
       <use xlink:href="#md3ce5a0a84" x="69.660938" y="193.384902" style="stroke: #000000; stroke-width: 0.8"/>
      </g>
     </g>
     <g id="text_42">
      <!-- 2021-09 -->
      <g transform="translate(20.878125 197.184121)scale(0.1 -0.1)">
       <use xlink:href="#DejaVuSans-32"/>
       <use xlink:href="#DejaVuSans-30" x="63.623047"/>
       <use xlink:href="#DejaVuSans-32" x="127.246094"/>
       <use xlink:href="#DejaVuSans-31" x="190.869141"/>
       <use xlink:href="#DejaVuSans-2d" x="254.492188"/>
       <use xlink:href="#DejaVuSans-30" x="290.576172"/>
       <use xlink:href="#DejaVuSans-39" x="354.199219"/>
      </g>
     </g>
    </g>
    <g id="ytick_7">
     <g id="line2d_83">
      <path d="M 69.660938 162.935315 
L 516.060938 162.935315 
" clip-path="url(#p0a6f9c5f6f)" style="fill: none; stroke: #b0b0b0; stroke-width: 0.8; stroke-linecap: square"/>
     </g>
     <g id="line2d_84">
      <g>
       <use xlink:href="#md3ce5a0a84" x="69.660938" y="162.935315" style="stroke: #000000; stroke-width: 0.8"/>
      </g>
     </g>
     <g id="text_43">
      <!-- 2022-01 -->
      <g transform="translate(20.878125 166.734534)scale(0.1 -0.1)">
       <use xlink:href="#DejaVuSans-32"/>
       <use xlink:href="#DejaVuSans-30" x="63.623047"/>
       <use xlink:href="#DejaVuSans-32" x="127.246094"/>
       <use xlink:href="#DejaVuSans-32" x="190.869141"/>
       <use xlink:href="#DejaVuSans-2d" x="254.492188"/>
       <use xlink:href="#DejaVuSans-30" x="290.576172"/>
       <use xlink:href="#DejaVuSans-31" x="354.199219"/>
      </g>
     </g>
    </g>
    <g id="ytick_8">
     <g id="line2d_85">
      <path d="M 69.660938 132.984902 
L 516.060938 132.984902 
" clip-path="url(#p0a6f9c5f6f)" style="fill: none; stroke: #b0b0b0; stroke-width: 0.8; stroke-linecap: square"/>
     </g>
     <g id="line2d_86">
      <g>
       <use xlink:href="#md3ce5a0a84" x="69.660938" y="132.984902" style="stroke: #000000; stroke-width: 0.8"/>
      </g>
     </g>
     <g id="text_44">
      <!-- 2022-05 -->
      <g transform="translate(20.878125 136.784121)scale(0.1 -0.1)">
       <use xlink:href="#DejaVuSans-32"/>
       <use xlink:href="#DejaVuSans-30" x="63.623047"/>
       <use xlink:href="#DejaVuSans-32" x="127.246094"/>
       <use xlink:href="#DejaVuSans-32" x="190.869141"/>
       <use xlink:href="#DejaVuSans-2d" x="254.492188"/>
       <use xlink:href="#DejaVuSans-30" x="290.576172"/>
       <use xlink:href="#DejaVuSans-35" x="354.199219"/>
      </g>
     </g>
    </g>
    <g id="ytick_9">
     <g id="line2d_87">
      <path d="M 69.660938 102.285728 
L 516.060938 102.285728 
" clip-path="url(#p0a6f9c5f6f)" style="fill: none; stroke: #b0b0b0; stroke-width: 0.8; stroke-linecap: square"/>
     </g>
     <g id="line2d_88">
      <g>
       <use xlink:href="#md3ce5a0a84" x="69.660938" y="102.285728" style="stroke: #000000; stroke-width: 0.8"/>
      </g>
     </g>
     <g id="text_45">
      <!-- 2022-09 -->
      <g transform="translate(20.878125 106.084947)scale(0.1 -0.1)">
       <use xlink:href="#DejaVuSans-32"/>
       <use xlink:href="#DejaVuSans-30" x="63.623047"/>
       <use xlink:href="#DejaVuSans-32" x="127.246094"/>
       <use xlink:href="#DejaVuSans-32" x="190.869141"/>
       <use xlink:href="#DejaVuSans-2d" x="254.492188"/>
       <use xlink:href="#DejaVuSans-30" x="290.576172"/>
       <use xlink:href="#DejaVuSans-39" x="354.199219"/>
      </g>
     </g>
    </g>
    <g id="ytick_10">
     <g id="line2d_89">
      <path d="M 69.660938 71.836142 
L 516.060938 71.836142 
" clip-path="url(#p0a6f9c5f6f)" style="fill: none; stroke: #b0b0b0; stroke-width: 0.8; stroke-linecap: square"/>
     </g>
     <g id="line2d_90">
      <g>
       <use xlink:href="#md3ce5a0a84" x="69.660938" y="71.836142" style="stroke: #000000; stroke-width: 0.8"/>
      </g>
     </g>
     <g id="text_46">
      <!-- 2023-01 -->
      <g transform="translate(20.878125 75.63536)scale(0.1 -0.1)">
       <use xlink:href="#DejaVuSans-32"/>
       <use xlink:href="#DejaVuSans-30" x="63.623047"/>
       <use xlink:href="#DejaVuSans-32" x="127.246094"/>
       <use xlink:href="#DejaVuSans-33" x="190.869141"/>
       <use xlink:href="#DejaVuSans-2d" x="254.492188"/>
       <use xlink:href="#DejaVuSans-30" x="290.576172"/>
       <use xlink:href="#DejaVuSans-31" x="354.199219"/>
      </g>
     </g>
    </g>
    <g id="ytick_11">
     <g id="line2d_91">
      <path d="M 69.660938 41.885728 
L 516.060938 41.885728 
" clip-path="url(#p0a6f9c5f6f)" style="fill: none; stroke: #b0b0b0; stroke-width: 0.8; stroke-linecap: square"/>
     </g>
     <g id="line2d_92">
      <g>
       <use xlink:href="#md3ce5a0a84" x="69.660938" y="41.885728" style="stroke: #000000; stroke-width: 0.8"/>
      </g>
     </g>
     <g id="text_47">
      <!-- 2023-05 -->
      <g transform="translate(20.878125 45.684947)scale(0.1 -0.1)">
       <use xlink:href="#DejaVuSans-32"/>
       <use xlink:href="#DejaVuSans-30" x="63.623047"/>
       <use xlink:href="#DejaVuSans-32" x="127.246094"/>
       <use xlink:href="#DejaVuSans-33" x="190.869141"/>
       <use xlink:href="#DejaVuSans-2d" x="254.492188"/>
       <use xlink:href="#DejaVuSans-30" x="290.576172"/>
       <use xlink:href="#DejaVuSans-35" x="354.199219"/>
      </g>
     </g>
    </g>
    <g id="text_48">
     <!-- Date -->
     <g transform="translate(14.798437 197.348906)rotate(-90)scale(0.1 -0.1)">
      <defs>
       <path id="DejaVuSans-44" d="M 1259 4147 
L 1259 519 
L 2022 519 
Q 2988 519 3436 956 
Q 3884 1394 3884 2338 
Q 3884 3275 3436 3711 
Q 2988 4147 2022 4147 
L 1259 4147 
z
M 628 4666 
L 1925 4666 
Q 3281 4666 3915 4102 
Q 4550 3538 4550 2338 
Q 4550 1131 3912 565 
Q 3275 0 1925 0 
L 628 0 
L 628 4666 
z
" transform="scale(0.015625)"/>
       <path id="DejaVuSans-74" d="M 1172 4494 
L 1172 3500 
L 2356 3500 
L 2356 3053 
L 1172 3053 
L 1172 1153 
Q 1172 725 1289 603 
Q 1406 481 1766 481 
L 2356 481 
L 2356 0 
L 1766 0 
Q 1100 0 847 248 
Q 594 497 594 1153 
L 594 3053 
L 172 3053 
L 172 3500 
L 594 3500 
L 594 4494 
L 1172 4494 
z
" transform="scale(0.015625)"/>
      </defs>
      <use xlink:href="#DejaVuSans-44"/>
      <use xlink:href="#DejaVuSans-61" x="77.001953"/>
      <use xlink:href="#DejaVuSans-74" x="138.28125"/>
      <use xlink:href="#DejaVuSans-65" x="177.490234"/>
     </g>
    </g>
   </g>
   <g id="line2d_93">
    <path d="M 76.010866 333.65267 
L 88.710724 304.451018 
L 101.410582 280.490687 
L 114.11044 259.525398 
L 126.810297 252.786555 
L 139.510155 240.057629 
L 152.210013 234.067546 
L 164.909871 213.851018 
L 177.609728 210.855976 
L 190.309586 178.659282 
L 203.009444 141.970026 
L 215.709302 122.502257 
L 228.409159 118.758456 
L 241.109017 115.014654 
L 253.808875 89.556803 
L 266.508733 69.340274 
L 279.20859 58.108869 
L 291.908448 49.872505 
L 304.608306 46.128704 
L 317.308164 38.6411 
" clip-path="url(#p0a6f9c5f6f)" style="fill: none; stroke: #008000; stroke-linecap: square"/>
   </g>
   <g id="line2d_94">
    <path d="M 76.010866 301.455976 
L 88.710724 280.490687 
L 101.410582 275.249365 
L 114.11044 261.022918 
L 126.810297 252.786555 
L 139.510155 232.570026 
L 152.210013 228.826224 
L 164.909871 222.836142 
L 177.609728 214.599778 
L 190.309586 210.855976 
L 203.009444 205.614654 
L 215.709302 189.890687 
L 228.409159 174.91548 
L 241.109017 173.41796 
L 253.808875 169.674158 
L 266.508733 161.437794 
L 279.20859 138.226224 
L 291.908448 132.984902 
L 304.608306 127.74358 
L 317.308164 123.251018 
L 330.008021 119.507216 
L 342.707879 115.014654 
L 355.407737 109.024571 
L 368.107595 98.541927 
L 380.807452 95.546885 
L 393.50731 89.556803 
L 406.207168 80.571679 
L 418.907026 77.576637 
L 431.606883 69.340274 
L 444.306741 57.360108 
L 457.006599 50.621265 
L 469.706457 46.877464 
L 482.406314 39.389861 
" clip-path="url(#p0a6f9c5f6f)" style="fill: none; stroke: #ff0000; stroke-linecap: square"/>
   </g>
   <g id="line2d_95">
    <path d="M 76.010866 323.170026 
L 88.710724 300.707216 
L 101.410582 297.712175 
L 114.11044 272.254323 
L 126.810297 267.013001 
L 139.510155 264.01796 
L 152.210013 250.540274 
L 164.909871 226.579943 
L 177.609728 204.117133 
L 190.309586 198.875811 
L 203.009444 182.403084 
L 215.709302 173.41796 
L 228.409159 169.674158 
L 241.109017 166.679117 
L 253.808875 159.191513 
L 266.508733 146.462588 
L 279.20859 126.994819 
L 291.908448 112.768373 
L 304.608306 109.024571 
L 317.308164 100.788208 
L 330.008021 88.808042 
L 342.707879 80.571679 
L 355.407737 77.576637 
L 368.107595 72.335315 
L 380.807452 69.340274 
L 393.50731 61.85267 
L 406.207168 54.365067 
L 418.907026 47.626224 
L 431.606883 40.887381 
" clip-path="url(#p0a6f9c5f6f)" style="fill: none; stroke: #0000ff; stroke-linecap: square"/>
   </g>
   <g id="line2d_96">
    <path d="M 76.010866 319.426224 
L 88.710724 293.219613 
L 101.410582 262.520439 
L 114.11044 256.530356 
L 126.810297 250.540274 
L 139.510155 238.560108 
L 152.210013 226.579943 
L 164.909871 212.353497 
L 177.609728 192.136968 
L 190.309586 158.442753 
L 203.009444 125.497299 
L 215.709302 121.753497 
L 228.409159 116.512175 
L 241.109017 109.024571 
L 253.808875 72.335315 
L 266.508733 68.591513 
L 279.20859 54.365067 
L 291.908448 47.626224 
L 304.608306 41.636142 
L 317.308164 37.14358 
" clip-path="url(#p0a6f9c5f6f)" style="fill: none; stroke: #008000; stroke-width: 2.5; stroke-linecap: square"/>
   </g>
   <g id="line2d_97">
    <path d="M 76.010866 317.179943 
L 88.710724 290.224571 
L 101.410582 278.244406 
L 114.11044 262.520439 
L 126.810297 255.781596 
L 139.510155 249.791513 
L 152.210013 231.821265 
L 164.909871 226.579943 
L 177.609728 221.338621 
L 190.309586 212.353497 
L 203.009444 208.609695 
L 215.709302 191.388208 
L 228.409159 187.644406 
L 241.109017 174.16672 
L 253.808875 171.171679 
L 266.508733 162.935315 
L 279.20859 153.950191 
L 291.908448 136.728704 
L 304.608306 129.2411 
L 317.308164 123.999778 
L 330.008021 121.004737 
L 342.707879 115.763414 
L 355.407737 110.522092 
L 368.107595 106.02953 
L 380.807452 97.044406 
L 393.50731 93.300604 
L 406.207168 86.561761 
L 418.907026 79.822918 
L 431.606883 72.335315 
L 444.306741 67.093993 
L 457.006599 55.113827 
L 469.706457 48.374985 
L 482.406314 43.882423 
L 495.106172 37.14358 
" clip-path="url(#p0a6f9c5f6f)" style="fill: none; stroke: #ff0000; stroke-width: 2.5; stroke-linecap: square"/>
   </g>
   <g id="line2d_98">
    <path d="M 76.010866 328.411348 
L 88.710724 315.682423 
L 101.410582 299.209695 
L 114.11044 284.983249 
L 126.810297 270.008042 
L 139.510155 265.51548 
L 152.210013 253.535315 
L 164.909871 241.55515 
L 177.609728 213.851018 
L 190.309586 203.368373 
L 203.009444 184.649365 
L 215.709302 179.408042 
L 228.409159 171.920439 
L 241.109017 168.925398 
L 253.808875 165.930356 
L 266.508733 147.211348 
L 279.20859 144.216307 
L 291.908448 115.763414 
L 304.608306 110.522092 
L 317.308164 101.536968 
L 330.008021 93.300604 
L 342.707879 86.561761 
L 355.407737 79.822918 
L 368.107595 75.330356 
L 380.807452 70.089034 
L 393.50731 62.601431 
L 406.207168 60.35515 
L 418.907026 49.872505 
L 431.606883 45.379943 
" clip-path="url(#p0a6f9c5f6f)" style="fill: none; stroke: #0000ff; stroke-width: 2.5; stroke-linecap: square"/>
   </g>
   <g id="patch_3">
    <path d="M 69.660938 348.478125 
L 69.660938 22.318125 
" style="fill: none; stroke: #000000; stroke-width: 0.8; stroke-linejoin: miter; stroke-linecap: square"/>
   </g>
   <g id="patch_4">
    <path d="M 516.060938 348.478125 
L 516.060938 22.318125 
" style="fill: none; stroke: #000000; stroke-width: 0.8; stroke-linejoin: miter; stroke-linecap: square"/>
   </g>
   <g id="patch_5">
    <path d="M 69.660938 348.478125 
L 516.060938 348.478125 
" style="fill: none; stroke: #000000; stroke-width: 0.8; stroke-linejoin: miter; stroke-linecap: square"/>
   </g>
   <g id="patch_6">
    <path d="M 69.660938 22.318125 
L 516.060938 22.318125 
" style="fill: none; stroke: #000000; stroke-width: 0.8; stroke-linejoin: miter; stroke-linecap: square"/>
   </g>
   <g id="text_49">
    <!-- USA -->
    <g transform="translate(280.44375 16.318125)scale(0.12 -0.12)">
     <defs>
      <path id="DejaVuSans-55" d="M 556 4666 
L 1191 4666 
L 1191 1831 
Q 1191 1081 1462 751 
Q 1734 422 2344 422 
Q 2950 422 3222 751 
Q 3494 1081 3494 1831 
L 3494 4666 
L 4128 4666 
L 4128 1753 
Q 4128 841 3676 375 
Q 3225 -91 2344 -91 
Q 1459 -91 1007 375 
Q 556 841 556 1753 
L 556 4666 
z
" transform="scale(0.015625)"/>
      <path id="DejaVuSans-53" d="M 3425 4513 
L 3425 3897 
Q 3066 4069 2747 4153 
Q 2428 4238 2131 4238 
Q 1616 4238 1336 4038 
Q 1056 3838 1056 3469 
Q 1056 3159 1242 3001 
Q 1428 2844 1947 2747 
L 2328 2669 
Q 3034 2534 3370 2195 
Q 3706 1856 3706 1288 
Q 3706 609 3251 259 
Q 2797 -91 1919 -91 
Q 1588 -91 1214 -16 
Q 841 59 441 206 
L 441 856 
Q 825 641 1194 531 
Q 1563 422 1919 422 
Q 2459 422 2753 634 
Q 3047 847 3047 1241 
Q 3047 1584 2836 1778 
Q 2625 1972 2144 2069 
L 1759 2144 
Q 1053 2284 737 2584 
Q 422 2884 422 3419 
Q 422 4038 858 4394 
Q 1294 4750 2059 4750 
Q 2388 4750 2728 4690 
Q 3069 4631 3425 4513 
z
" transform="scale(0.015625)"/>
      <path id="DejaVuSans-41" d="M 2188 4044 
L 1331 1722 
L 3047 1722 
L 2188 4044 
z
M 1831 4666 
L 2547 4666 
L 4325 0 
L 3669 0 
L 3244 1197 
L 1141 1197 
L 716 0 
L 50 0 
L 1831 4666 
z
" transform="scale(0.015625)"/>
     </defs>
     <use xlink:href="#DejaVuSans-55"/>
     <use xlink:href="#DejaVuSans-53" x="73.193359"/>
     <use xlink:href="#DejaVuSans-41" x="138.544922"/>
    </g>
   </g>
   <g id="legend_1">
    <g id="patch_7">
     <path d="M 76.660938 118.386875 
L 201.014063 118.386875 
Q 203.014063 118.386875 203.014063 116.386875 
L 203.014063 29.318125 
Q 203.014063 27.318125 201.014063 27.318125 
L 76.660938 27.318125 
Q 74.660938 27.318125 74.660938 29.318125 
L 74.660938 116.386875 
Q 74.660938 118.386875 76.660938 118.386875 
z
" style="fill: #ffffff; opacity: 0.8; stroke: #cccccc; stroke-linejoin: miter"/>
    </g>
    <g id="line2d_99">
     <path d="M 78.660938 35.416562 
L 88.660938 35.416562 
L 98.660938 35.416562 
" style="fill: none; stroke: #008000; stroke-linecap: square"/>
    </g>
    <g id="text_50">
     <!-- Min Cases -->
     <g transform="translate(106.660938 38.916562)scale(0.1 -0.1)">
      <defs>
       <path id="DejaVuSans-43" d="M 4122 4306 
L 4122 3641 
Q 3803 3938 3442 4084 
Q 3081 4231 2675 4231 
Q 1875 4231 1450 3742 
Q 1025 3253 1025 2328 
Q 1025 1406 1450 917 
Q 1875 428 2675 428 
Q 3081 428 3442 575 
Q 3803 722 4122 1019 
L 4122 359 
Q 3791 134 3420 21 
Q 3050 -91 2638 -91 
Q 1578 -91 968 557 
Q 359 1206 359 2328 
Q 359 3453 968 4101 
Q 1578 4750 2638 4750 
Q 3056 4750 3426 4639 
Q 3797 4528 4122 4306 
z
" transform="scale(0.015625)"/>
       <path id="DejaVuSans-73" d="M 2834 3397 
L 2834 2853 
Q 2591 2978 2328 3040 
Q 2066 3103 1784 3103 
Q 1356 3103 1142 2972 
Q 928 2841 928 2578 
Q 928 2378 1081 2264 
Q 1234 2150 1697 2047 
L 1894 2003 
Q 2506 1872 2764 1633 
Q 3022 1394 3022 966 
Q 3022 478 2636 193 
Q 2250 -91 1575 -91 
Q 1294 -91 989 -36 
Q 684 19 347 128 
L 347 722 
Q 666 556 975 473 
Q 1284 391 1588 391 
Q 1994 391 2212 530 
Q 2431 669 2431 922 
Q 2431 1156 2273 1281 
Q 2116 1406 1581 1522 
L 1381 1569 
Q 847 1681 609 1914 
Q 372 2147 372 2553 
Q 372 3047 722 3315 
Q 1072 3584 1716 3584 
Q 2034 3584 2315 3537 
Q 2597 3491 2834 3397 
z
" transform="scale(0.015625)"/>
      </defs>
      <use xlink:href="#DejaVuSans-4d"/>
      <use xlink:href="#DejaVuSans-69" x="86.279297"/>
      <use xlink:href="#DejaVuSans-6e" x="114.0625"/>
      <use xlink:href="#DejaVuSans-20" x="177.441406"/>
      <use xlink:href="#DejaVuSans-43" x="209.228516"/>
      <use xlink:href="#DejaVuSans-61" x="279.052734"/>
      <use xlink:href="#DejaVuSans-73" x="340.332031"/>
      <use xlink:href="#DejaVuSans-65" x="392.431641"/>
      <use xlink:href="#DejaVuSans-73" x="453.955078"/>
     </g>
    </g>
    <g id="line2d_100">
     <path d="M 78.660938 50.094687 
L 88.660938 50.094687 
L 98.660938 50.094687 
" style="fill: none; stroke: #ff0000; stroke-linecap: square"/>
    </g>
    <g id="text_51">
     <!-- Min Deaths -->
     <g transform="translate(106.660938 53.594687)scale(0.1 -0.1)">
      <defs>
       <path id="DejaVuSans-68" d="M 3513 2113 
L 3513 0 
L 2938 0 
L 2938 2094 
Q 2938 2591 2744 2837 
Q 2550 3084 2163 3084 
Q 1697 3084 1428 2787 
Q 1159 2491 1159 1978 
L 1159 0 
L 581 0 
L 581 4863 
L 1159 4863 
L 1159 2956 
Q 1366 3272 1645 3428 
Q 1925 3584 2291 3584 
Q 2894 3584 3203 3211 
Q 3513 2838 3513 2113 
z
" transform="scale(0.015625)"/>
      </defs>
      <use xlink:href="#DejaVuSans-4d"/>
      <use xlink:href="#DejaVuSans-69" x="86.279297"/>
      <use xlink:href="#DejaVuSans-6e" x="114.0625"/>
      <use xlink:href="#DejaVuSans-20" x="177.441406"/>
      <use xlink:href="#DejaVuSans-44" x="209.228516"/>
      <use xlink:href="#DejaVuSans-65" x="286.230469"/>
      <use xlink:href="#DejaVuSans-61" x="347.753906"/>
      <use xlink:href="#DejaVuSans-74" x="409.033203"/>
      <use xlink:href="#DejaVuSans-68" x="448.242188"/>
      <use xlink:href="#DejaVuSans-73" x="511.621094"/>
     </g>
    </g>
    <g id="line2d_101">
     <path d="M 78.660938 64.772812 
L 88.660938 64.772812 
L 98.660938 64.772812 
" style="fill: none; stroke: #0000ff; stroke-linecap: square"/>
    </g>
    <g id="text_52">
     <!-- Min Deaths/Cases -->
     <g transform="translate(106.660938 68.272812)scale(0.1 -0.1)">
      <defs>
       <path id="DejaVuSans-2f" d="M 1625 4666 
L 2156 4666 
L 531 -594 
L 0 -594 
L 1625 4666 
z
" transform="scale(0.015625)"/>
      </defs>
      <use xlink:href="#DejaVuSans-4d"/>
      <use xlink:href="#DejaVuSans-69" x="86.279297"/>
      <use xlink:href="#DejaVuSans-6e" x="114.0625"/>
      <use xlink:href="#DejaVuSans-20" x="177.441406"/>
      <use xlink:href="#DejaVuSans-44" x="209.228516"/>
      <use xlink:href="#DejaVuSans-65" x="286.230469"/>
      <use xlink:href="#DejaVuSans-61" x="347.753906"/>
      <use xlink:href="#DejaVuSans-74" x="409.033203"/>
      <use xlink:href="#DejaVuSans-68" x="448.242188"/>
      <use xlink:href="#DejaVuSans-73" x="511.621094"/>
      <use xlink:href="#DejaVuSans-2f" x="563.720703"/>
      <use xlink:href="#DejaVuSans-43" x="597.412109"/>
      <use xlink:href="#DejaVuSans-61" x="667.236328"/>
      <use xlink:href="#DejaVuSans-73" x="728.515625"/>
      <use xlink:href="#DejaVuSans-65" x="780.615234"/>
      <use xlink:href="#DejaVuSans-73" x="842.138672"/>
     </g>
    </g>
    <g id="line2d_102">
     <path d="M 78.660938 79.450937 
L 88.660938 79.450937 
L 98.660938 79.450937 
" style="fill: none; stroke: #008000; stroke-width: 2.5; stroke-linecap: square"/>
    </g>
    <g id="text_53">
     <!-- Max Cases -->
     <g transform="translate(106.660938 82.950937)scale(0.1 -0.1)">
      <use xlink:href="#DejaVuSans-4d"/>
      <use xlink:href="#DejaVuSans-61" x="86.279297"/>
      <use xlink:href="#DejaVuSans-78" x="147.558594"/>
      <use xlink:href="#DejaVuSans-20" x="206.738281"/>
      <use xlink:href="#DejaVuSans-43" x="238.525391"/>
      <use xlink:href="#DejaVuSans-61" x="308.349609"/>
      <use xlink:href="#DejaVuSans-73" x="369.628906"/>
      <use xlink:href="#DejaVuSans-65" x="421.728516"/>
      <use xlink:href="#DejaVuSans-73" x="483.251953"/>
     </g>
    </g>
    <g id="line2d_103">
     <path d="M 78.660938 94.129062 
L 88.660938 94.129062 
L 98.660938 94.129062 
" style="fill: none; stroke: #ff0000; stroke-width: 2.5; stroke-linecap: square"/>
    </g>
    <g id="text_54">
     <!-- Max Deaths -->
     <g transform="translate(106.660938 97.629062)scale(0.1 -0.1)">
      <use xlink:href="#DejaVuSans-4d"/>
      <use xlink:href="#DejaVuSans-61" x="86.279297"/>
      <use xlink:href="#DejaVuSans-78" x="147.558594"/>
      <use xlink:href="#DejaVuSans-20" x="206.738281"/>
      <use xlink:href="#DejaVuSans-44" x="238.525391"/>
      <use xlink:href="#DejaVuSans-65" x="315.527344"/>
      <use xlink:href="#DejaVuSans-61" x="377.050781"/>
      <use xlink:href="#DejaVuSans-74" x="438.330078"/>
      <use xlink:href="#DejaVuSans-68" x="477.539062"/>
      <use xlink:href="#DejaVuSans-73" x="540.917969"/>
     </g>
    </g>
    <g id="line2d_104">
     <path d="M 78.660938 108.807187 
L 88.660938 108.807187 
L 98.660938 108.807187 
" style="fill: none; stroke: #0000ff; stroke-width: 2.5; stroke-linecap: square"/>
    </g>
    <g id="text_55">
     <!-- Max Deaths/Cases -->
     <g transform="translate(106.660938 112.307187)scale(0.1 -0.1)">
      <use xlink:href="#DejaVuSans-4d"/>
      <use xlink:href="#DejaVuSans-61" x="86.279297"/>
      <use xlink:href="#DejaVuSans-78" x="147.558594"/>
      <use xlink:href="#DejaVuSans-20" x="206.738281"/>
      <use xlink:href="#DejaVuSans-44" x="238.525391"/>
      <use xlink:href="#DejaVuSans-65" x="315.527344"/>
      <use xlink:href="#DejaVuSans-61" x="377.050781"/>
      <use xlink:href="#DejaVuSans-74" x="438.330078"/>
      <use xlink:href="#DejaVuSans-68" x="477.539062"/>
      <use xlink:href="#DejaVuSans-73" x="540.917969"/>
      <use xlink:href="#DejaVuSans-2f" x="593.017578"/>
      <use xlink:href="#DejaVuSans-43" x="626.708984"/>
      <use xlink:href="#DejaVuSans-61" x="696.533203"/>
      <use xlink:href="#DejaVuSans-73" x="757.8125"/>
      <use xlink:href="#DejaVuSans-65" x="809.912109"/>
      <use xlink:href="#DejaVuSans-73" x="871.435547"/>
     </g>
    </g>
   </g>
  </g>
 </g>
 <defs>
  <clipPath id="p0a6f9c5f6f">
   <rect x="69.660938" y="22.318125" width="446.4" height="326.16"/>
  </clipPath>
 </defs>
</svg>
